HIERARCHY
ROOT Hips
{
  OFFSET -31.5692 30.0904 122.763
  CHANNELS 6 Xposition Yposition Zposition Zrotation Xrotation Yrotation
  JOINT LeftUpLeg
  {
    OFFSET 8.64259 1.95398 -2.38835
    CHANNELS 3 Zrotation Xrotation Yrotation
    JOINT LeftLeg
    {
      OFFSET 43.7702 0 0
      CHANNELS 3 Zrotation Xrotation Yrotation
      JOINT LeftFoot
      {
        OFFSET 40.6238 0 0
        CHANNELS 3 Zrotation Xrotation Yrotation
        JOINT LeftToeBase
        {
          OFFSET 12.7242 0 0
          CHANNELS 3 Zrotation Xrotation Yrotation
          End Site
          {
            OFFSET 0 0 0
          }
        }
      }
    }
  }
  JOINT RightUpLeg
  {
    OFFSET -8.2249 1.95398 -2.59336
    CHANNELS 3 Zrotation Xrotation Yrotation
    JOINT RightLeg
    {
      OFFSET 43.5653 0 0
      CHANNELS 3 Zrotation Xrotation Yrotation
      JOINT RightFoot
      {
        OFFSET 40.6238 0 0
        CHANNELS 3 Zrotation Xrotation Yrotation
        JOINT RightToeBase
        {
          OFFSET 12.7242 0 0
          CHANNELS 3 Zrotation Xrotation Yrotation
          End Site
          {
            OFFSET 0 0 0
          }
        }
      }
    }
  }
  JOINT Spine
  {
    OFFSET 0.165834 0.87714 6.61349
    CHANNELS 3 Zrotation Xrotation Yrotation
    JOINT Spine1
    {
      OFFSET 7.38963 1.71661e-005 0
      CHANNELS 3 Zrotation Xrotation Yrotation
      JOINT Spine2
      {
        OFFSET 11.9445 1.14441e-005 0
        CHANNELS 3 Zrotation Xrotation Yrotation
        JOINT Spine3
        {
          OFFSET 14.7254 4.19617e-005 0
          CHANNELS 3 Zrotation Xrotation Yrotation
          JOINT Spine4
          {
            OFFSET 10.9679 0 0
            CHANNELS 3 Zrotation Xrotation Yrotation
            JOINT RightShoulder
            {
              OFFSET 2.46616 -1.6653 3.69651
              CHANNELS 3 Zrotation Xrotation Yrotation
              JOINT RightArm
              {
                OFFSET 13.0012 0 0
                CHANNELS 3 Zrotation Xrotation Yrotation
                JOINT RightForeArm
                {
                  OFFSET 28.7848 1.62311e-005 0
                  CHANNELS 3 Zrotation Xrotation Yrotation
                  JOINT RightHand
                  {
                    OFFSET 26.5688 1.62095e-005 0
                    CHANNELS 3 Zrotation Xrotation Yrotation
                    End Site
                    {
                      OFFSET 0 0 0
                    }
                  }
                }
              }
            }
            JOINT LeftShoulder
            {
              OFFSET 2.38034 -1.29275 -3.7523
              CHANNELS 3 Zrotation Xrotation Yrotation
              JOINT LeftArm
              {
                OFFSET 16.3182 6.07031e-005 0
                CHANNELS 3 Zrotation Xrotation Yrotation
                JOINT LeftForeArm
                {
                  OFFSET 27.0901 0 0
                  CHANNELS 3 Zrotation Xrotation Yrotation
                  JOINT LeftHand
                  {
                    OFFSET 24.5451 1.51738e-005 0
                    CHANNELS 3 Zrotation Xrotation Yrotation
                    End Site
                    {
                      OFFSET 0 0 0
                    }
                  }
                }
              }
            }
            JOINT Neck
            {
              OFFSET 5.0226 -0.0266342 0
              CHANNELS 3 Zrotation Xrotation Yrotation
              JOINT Head
              {
                OFFSET 6.69364 2.86102e-005 0
                CHANNELS 3 Zrotation Xrotation Yrotation
                End Site
                {
                  OFFSET 0 0 0
                }
              }
            }
          }
        }
      }
    }
  }
}
MOTION
Frames:	9
Frame Time:	0.0416667
45.2957 99.4994 -57.1049 99.5014 27.7302 76.949 -175.972 28.1533 82.616 -23.945 -2.02573 -2.24644 75.7404 11.9856 0.527659 19.1222 -6.87688 4.81649 168.438 -9.88684 85.0265 -26.9935 -7.81971 -1.24885 75.5333 -8.51435 -2.66969 29.6604 -0.792381 1.95972 2.33418 8.36854 -89.4676 10.1293 4.894 0.640995 -1.53251 4.91746 0.424452 -24.131 4.47467 2.08499 -4.11831 4.47467 2.08499 92.4252 -20.1588 -105.555 28.9263 -10.3635 -33.6192 0.169208 -31.6514 -22.4012 -28.2022 0.517618 -12.8685 -86.1787 -44.2302 83.5453 -36.6967 -1.57132 36.2681 -2.68724 -12.2959 -7.78525 -4.43092 -0.372794 -14.7096 -8.48235 4.6358 22.798 -4.0212 3.15068 -4.2818 
57.6853 93.1261 -69.3095 97.657 27.0964 80.6376 -175.427 30.3349 84.1915 -21.8816 -2.78888 -2.74805 69.0033 5.58466 -3.97638 20.0334 -7.88927 8.08234 163.758 -22.6713 81.1169 -22.2838 -10.0684 -1.19097 81.5256 -13.354 -4.09701 41.4028 -5.77639 -0.175658 2.26118 8.03215 -89.8552 10.8135 4.56932 -0.126589 -0.849549 4.55928 -0.327993 -23.4454 4.39573 1.25526 -3.43279 4.39574 1.25526 91.2766 -21.1748 -107.732 33.8955 -9.1156 -30.6839 -1.54777 -37.3695 -21.513 -30.6046 -0.24845 -10.2453 -85.0261 -54.8442 86.7764 -25.2978 3.59829 23.7548 -2.43614 -13.2944 -0.769948 2.74767 -0.382775 -3.15821 -5.82092 6.42308 25.4482 -6.08386 4.19253 -3.05514 
72.044 92.0388 -82.1292 96.5655 30.8677 76.9333 -171.457 33.3311 77.4622 -39.6565 6.84455 -6.41174 63.7094 0.819712 -0.498099 9.02336 -10.8622 1.57035 162.236 -19.2118 75.1733 -38.8975 -10.2912 -5.09415 63.4309 -0.698037 -1.70162 47.1224 -8.35993 2.71193 1.84629 7.60462 -88.9135 11.6352 4.1817 1.73079 -0.0299722 4.25384 1.54479 -22.5958 3.46825 2.90835 -2.58317 3.46825 2.90835 90.8188 -25.4815 -106.875 41.2992 -11.693 -16.5398 5.67968 -31.5207 -15.0825 -26.4173 -0.213053 -9.53553 -85.6297 -54.6214 85.9131 -23.5602 5.57859 9.14316 -1.33154 -30.4678 0.0177624 10.1708 -0.436822 2.88105 -2.95345 6.53506 17.1313 -9.50432 4.72114 -3.37847 
84.1424 92.4185 -92.5673 101.027 35.0265 72.7011 -171.361 23.6303 73.5965 -50.1382 11.1164 -5.80695 76.9143 10.509 2.45349 9.21915 -11.9514 3.64047 171.733 -3.30258 84.9282 -85.0201 -23.6687 -8.80846 59.1731 1.54032 -0.584989 20.0882 2.25364 6.44218 1.04215 7.88708 -88.5765 11.0605 2.73482 2.57261 -0.609887 2.84536 2.44977 -23.137 1.83567 3.27516 -3.12438 1.83567 3.27516 90.9665 -26.938 -105.98 44.6169 -7.66098 -2.05306 9.08529 -34.4567 -9.6534 -18.1614 -0.342527 -11.3386 -86.8512 -54.1384 84.0946 -19.4129 7.18671 -11.8064 -3.37631 -18.3316 -0.106059 0.182503 -1.0089 -15.9817 -0.212798 4.22378 4.57665 -8.37031 3.68326 -3.86059 
94.0066 98.9616 -101.188 101.547 33.2582 78.847 -171.733 7.66858 80.4643 -37.9882 13.5478 -4.90843 72.4558 8.11617 2.37829 14.9248 -8.77785 3.74249 -177.044 25.4335 82.3133 -95.2704 -5.35399 -6.41007 66.4081 -2.74561 -3.84819 20.6664 2.15759 5.89672 0.541844 7.99045 -89.3141 10.9029 1.39599 1.21591 -0.767906 1.44815 1.15329 -23.3021 0.966075 1.57918 -3.28942 0.966069 1.57918 90.7318 -28.1135 -106.004 41.653 -3.48731 2.71594 12.2123 -27.3658 -0.315442 -26.3723 -2.13558 0.413465 -86.8626 -53.4257 83.9745 -14.517 2.54858 -28.4957 -1.68059 3.48482 -3.89911 9.93407 -1.78338 -20.8342 -7.08539 3.89834 -1.84032 -6.45789 4.22336 -5.88653 
104.165 107.441 -110.33 106.068 40.2188 81.8413 -174.451 -3.36991 86.6987 -28.4456 17.9118 1.1395 55.1975 -3.85462 -1.00608 11.9491 -10.5237 3.84948 -178.16 32.6141 91.7852 -81.065 -0.983085 -5.26489 72.1057 -6.15323 -3.94611 20.5347 2.76375 3.94174 -0.384441 8.36302 -90.4942 10.1492 -0.991543 -0.900813 -1.52172 -1.03023 -0.856314 -24.056 -0.675002 -1.15714 -4.04338 -0.674995 -1.15715 89.366 -28.0503 -108.818 37.8445 -2.53445 11.3796 10.4572 -16.4719 -2.38652 -26.0672 -1.32105 -1.49064 -87.8515 -47.5863 81.4987 -16.959 1.01108 -39.3122 -1.43858 -1.98119 -7.4023 10.6754 -3.07056 -30.1543 -17.2398 3.17576 -4.14673 -3.19416 3.14157 -3.58858 
114.567 109.673 -119.147 106.006 48.5666 84.0393 -171.438 -7.25714 91.4385 -21.9575 18.0048 0.0646475 57.0733 -2.34772 -3.19391 15.6768 -9.57089 6.24326 -177.892 35.5867 93.1159 -65.8487 -7.76747 -4.76225 72.4713 -6.90098 -4.00473 20.9785 2.49014 4.22817 -0.759736 8.3415 -91.164 10.1673 -2.04479 -2.13828 -1.50362 -2.13688 -2.04625 -24.0309 -1.30785 -2.6537 -4.01825 -1.30787 -2.65372 89.2075 -28.6919 -108.866 37.0799 -2.34713 18.1967 12.3494 -20.784 -2.19521 -20.7484 -0.248017 -7.8411 -88.5286 -41.6804 79.2021 -22.2045 -0.806428 -52.1658 -0.672217 1.99723 -11.4847 9.97818 -3.98726 -39.1213 -18.0249 1.00693 -11.3674 -2.99305 0.798498 -1.35364 
125.384 105.48 -128.043 105.347 56.307 86.5537 -169.774 -9.25169 94.8299 -18.2791 8.00722 0.584888 67.632 3.99907 -2.69285 17.252 -10.4463 9.85353 179.605 34.1131 95.1137 -46.541 -7.32767 -1.69218 70.2621 -5.96894 -2.58027 22.9968 1.91649 3.02866 -1.25848 8.24394 -91.5952 10.3363 -3.23704 -2.88804 -1.33354 -3.36092 -2.74281 -23.8604 -2.22006 -3.72673 -3.84778 -2.22004 -3.72673 90.3211 -28.2556 -106.793 38.8175 -1.6494 20.8972 11.9181 -23.0802 -3.09876 -17.9191 -0.359266 -7.88493 -88.9889 -38.2412 77.6015 -25.2642 -3.04562 -62.2541 3.40532 -5.18832 -12.5186 8.10814 -3.87304 -44.2324 -14.5667 -0.908062 -16.9141 -4.89634 -0.69186 -0.760561 
137.765 97.9789 -138.673 105.574 59.3354 86.2848 -163.386 -22.6733 101.531 -15.0541 10.9011 0.841441 82.318 14.9327 1.59836 30.367 -3.57939 12.988 177.889 29.0028 97.0645 -27.9928 -9.06824 1.12397 70.1999 -7.08289 -2.40169 27.7286 0.347808 0.729859 -1.29877 8.064 -91.545 10.7021 -3.29856 -2.78067 -0.967371 -3.41768 -2.6328 -23.4975 -2.31097 -3.6429 -3.48489 -2.31097 -3.64291 91.835 -32.0251 -102.501 36.5074 -0.4683 19.7302 10.5447 -20.3403 -2.61081 -15.5921 -0.146999 -9.62492 -89.1798 -39.4555 77.572 -27.3 -0.137298 -65.705 3.11207 -1.93504 -17.1782 10.3921 -4.86725 -45.396 -11.7458 -2.84418 -19.8786 -5.77804 -2.09832 -1.58292 
